<svg xmlns="http://www.w3.org/2000/svg" viewBox="0 0 88 66" width="88" height="66">
	<style>
		tspan { white-space:pre }
		.shp0 { fill: #ffffff } 
	</style>
	<path id="Shadow" class="Shadow" d="M32.37 64.13C14.94 64.13 0.8 49.99 0.8 32.56C0.8 15.12 14.94 0.99 32.37 0.99C44.22 0.99 54.53 7.52 59.93 17.18C61.24 16.95 62.57 16.77 63.94 16.77C77.02 16.77 87.62 27.37 87.62 40.45C87.62 53.53 77.02 64.13 63.94 64.13C58.46 64.13 38.68 64.13 32.37 64.13ZM63.94 56.24C72.66 56.24 79.73 49.17 79.73 40.45C79.73 31.73 72.66 24.67 63.94 24.67C60.78 24.67 57.86 25.62 55.39 27.21C52.96 16.72 43.6 8.88 32.37 8.88C19.29 8.88 8.69 19.48 8.69 32.56C8.69 45.64 19.29 56.24 32.37 56.24C39.51 56.24 57.98 56.24 63.94 56.24Z" fill="rgb(189,84,205)" fill-opacity="0.75" transform="translate(0 1)" />
	
	<path id="Cloud" class="shp0" d="M32.37 64.13C14.94 64.13 0.8 49.99 0.8 32.56C0.8 15.12 14.94 0.99 32.37 0.99C44.22 0.99 54.53 7.52 59.93 17.18C61.24 16.95 62.57 16.77 63.94 16.77C77.02 16.77 87.62 27.37 87.62 40.45C87.62 53.53 77.02 64.13 63.94 64.13C58.46 64.13 38.68 64.13 32.37 64.13ZM63.94 56.24C72.66 56.24 79.73 49.17 79.73 40.45C79.73 31.73 72.66 24.67 63.94 24.67C60.78 24.67 57.86 25.62 55.39 27.21C52.96 16.72 43.6 8.88 32.37 8.88C19.29 8.88 8.69 19.48 8.69 32.56C8.69 45.64 19.29 56.24 32.37 56.24C39.51 56.24 57.98 56.24 63.94 56.24Z" />
</svg>