<svg xmlns="http://www.w3.org/2000/svg" viewBox="0 0 24 19" width="24" height="19">
	<style>
		tspan { white-space:pre }
		.shp0 { fill: #ffffff } 
	</style>
	<path id="shadow" class="shadow" d="M8.53 17.6C3.92 17.6 0.19 13.87 0.19 9.26C0.19 4.66 3.92 0.92 8.53 0.92C11.66 0.92 14.38 2.65 15.81 5.2C16.15 5.14 16.5 5.09 16.87 5.09C20.32 5.09 23.12 7.89 23.12 11.35C23.12 14.8 20.32 17.6 16.87 17.6C15.42 17.6 10.19 17.6 8.53 17.6ZM16.87 15.52C19.17 15.52 21.04 13.65 21.04 11.35C21.04 9.05 19.17 7.18 16.87 7.18C16.03 7.18 15.26 7.43 14.61 7.85C13.97 5.08 11.49 3.01 8.53 3.01C5.07 3.01 2.27 5.81 2.27 9.26C2.27 12.72 5.07 15.52 8.53 15.52C10.41 15.52 15.29 15.52 16.87 15.52Z" fill="rgb(220,61,102)" fill-opacity="0.75" transform="translate(0 1)" />
	
	<path id="Cloud small" class="shp0" d="M8.53 17.6C3.92 17.6 0.19 13.87 0.19 9.26C0.19 4.66 3.92 0.92 8.53 0.92C11.66 0.92 14.38 2.65 15.81 5.2C16.15 5.14 16.5 5.09 16.87 5.09C20.32 5.09 23.12 7.89 23.12 11.35C23.12 14.8 20.32 17.6 16.87 17.6C15.42 17.6 10.19 17.6 8.53 17.6ZM16.87 15.52C19.17 15.52 21.04 13.65 21.04 11.35C21.04 9.05 19.17 7.18 16.87 7.18C16.03 7.18 15.26 7.43 14.61 7.85C13.97 5.08 11.49 3.01 8.53 3.01C5.07 3.01 2.27 5.81 2.27 9.26C2.27 12.72 5.07 15.52 8.53 15.52C10.41 15.52 15.29 15.52 16.87 15.52Z" />
</svg>