<svg xmlns="http://www.w3.org/2000/svg" viewBox="0 0 23 21" width="23" height="21">
	<style>
		tspan { white-space:pre }
		.shp0 { fill: #ffffff } 
	</style>
	<path id="shadow" class="shadow" d="M16.57 16.63C16.43 16.63 16.25 16.63 16.05 16.63C16.05 15.92 15.89 15.21 15.57 14.56C15.97 14.56 16.32 14.56 16.57 14.56C18.86 14.56 20.71 12.71 20.71 10.42C20.71 8.13 18.86 6.28 16.57 6.28C15.74 6.28 14.98 6.53 14.33 6.94C13.69 4.19 11.23 2.13 8.29 2.13C4.86 2.13 2.07 4.92 2.07 8.35C2.07 11.43 4.32 13.98 7.27 14.47C6.94 15.1 6.76 15.79 6.74 16.48C2.91 15.76 0 12.39 0 8.35C0 3.77 3.71 0.06 8.29 0.06C11.4 0.06 14.1 1.78 15.52 4.31C15.86 4.25 16.21 4.21 16.57 4.21C20 4.21 22.79 6.99 22.79 10.42C22.79 13.85 20 16.63 16.57 16.63ZM11.39 12.97L13.22 14.8C14.24 15.81 14.24 17.45 13.22 18.46C12.21 19.47 10.57 19.47 9.56 18.46C8.55 17.45 8.55 15.81 9.56 14.8L11.39 12.97Z" fill="rgb(220,61,102)" fill-opacity="0.75" transform="translate(0 1)" />
	
	<path id="CR Alt small" class="shp0" d="M16.57 16.63C16.43 16.63 16.25 16.63 16.05 16.63C16.05 15.92 15.89 15.21 15.57 14.56C15.97 14.56 16.32 14.56 16.57 14.56C18.86 14.56 20.71 12.71 20.71 10.42C20.71 8.13 18.86 6.28 16.57 6.28C15.74 6.28 14.98 6.53 14.33 6.94C13.69 4.19 11.23 2.13 8.29 2.13C4.86 2.13 2.07 4.92 2.07 8.35C2.07 11.43 4.32 13.98 7.27 14.47C6.94 15.1 6.76 15.79 6.74 16.48C2.91 15.76 0 12.39 0 8.35C0 3.77 3.71 0.06 8.29 0.06C11.4 0.06 14.1 1.78 15.52 4.31C15.86 4.25 16.21 4.21 16.57 4.21C20 4.21 22.79 6.99 22.79 10.42C22.79 13.85 20 16.63 16.57 16.63ZM11.39 12.97L13.22 14.8C14.24 15.81 14.24 17.45 13.22 18.46C12.21 19.47 10.57 19.47 9.56 18.46C8.55 17.45 8.55 15.81 9.56 14.8L11.39 12.97Z" />
</svg>