<svg xmlns="http://www.w3.org/2000/svg" viewBox="0 0 25 23" width="25" height="23">
	<style>
		tspan { white-space:pre }
		.shp0 { fill: #ffffff } 
	</style>
	<path id="shadow" class="shadow" d="M23.14 11.76L21.42 11.76C20.94 11.76 20.56 11.37 20.56 10.9C20.56 10.42 20.94 10.04 21.42 10.04L23.14 10.04C23.62 10.04 24.01 10.42 24.01 10.9C24.01 11.37 23.62 11.76 23.14 11.76ZM19.76 6.02C19.42 6.36 18.88 6.36 18.54 6.02C18.2 5.68 18.2 5.14 18.54 4.8L19.76 3.58C20.09 3.25 20.64 3.25 20.98 3.58C21.31 3.92 21.31 4.47 20.98 4.8L19.76 6.02ZM18.49 12.75L18.49 12.75C19.24 13.65 19.7 14.8 19.7 16.07C19.7 18.93 17.38 21.24 14.52 21.24C13.33 21.24 9.01 21.24 7.63 21.24C3.82 21.24 0.73 18.15 0.73 14.34C0.73 10.54 3.82 7.45 7.63 7.45C8.31 7.45 8.96 7.55 9.58 7.73C10.53 6.51 12 5.73 13.66 5.73C16.52 5.73 18.83 8.04 18.83 10.9C18.83 11.55 18.71 12.17 18.49 12.75ZM2.46 14.34C2.46 17.2 4.77 19.52 7.63 19.52C9.19 19.52 13.22 19.52 14.52 19.52C16.43 19.52 17.97 17.97 17.97 16.07C17.97 14.16 16.43 12.62 14.52 12.62C13.84 12.62 13.2 12.83 12.66 13.18C12.13 10.89 10.08 9.17 7.63 9.17C4.77 9.17 2.46 11.49 2.46 14.34ZM13.66 7.45C12.71 7.45 11.85 7.84 11.22 8.46C12.23 9.08 13.07 9.95 13.65 10.99C13.93 10.94 14.22 10.9 14.52 10.9C15.44 10.9 16.3 11.14 17.05 11.56L17.05 11.56C17.09 11.34 17.11 11.12 17.11 10.9C17.11 8.99 15.57 7.45 13.66 7.45ZM13.66 4C13.19 4 12.8 3.62 12.8 3.14L12.8 1.42C12.8 0.94 13.19 0.55 13.66 0.55C14.14 0.55 14.52 0.94 14.52 1.42L14.52 3.14C14.52 3.62 14.14 4 13.66 4ZM7.57 6.02L6.35 4.8C6.01 4.47 6.01 3.92 6.35 3.58C6.69 3.25 7.23 3.25 7.57 3.58L8.79 4.8C9.12 5.14 9.12 5.68 8.79 6.02C8.45 6.36 7.9 6.36 7.57 6.02Z" fill="rgb(220,61,102)" fill-opacity="0.75" transform="translate(0 1)" />
	
	<path id="CS small" class="shp0" d="M23.14 11.76L21.42 11.76C20.94 11.76 20.56 11.37 20.56 10.9C20.56 10.42 20.94 10.04 21.42 10.04L23.14 10.04C23.62 10.04 24.01 10.42 24.01 10.9C24.01 11.37 23.62 11.76 23.14 11.76ZM19.76 6.02C19.42 6.36 18.88 6.36 18.54 6.02C18.2 5.68 18.2 5.14 18.54 4.8L19.76 3.58C20.09 3.25 20.64 3.25 20.98 3.58C21.31 3.92 21.31 4.47 20.98 4.8L19.76 6.02ZM18.49 12.75L18.49 12.75C19.24 13.65 19.7 14.8 19.7 16.07C19.7 18.93 17.38 21.24 14.52 21.24C13.33 21.24 9.01 21.24 7.63 21.24C3.82 21.24 0.73 18.15 0.73 14.34C0.73 10.54 3.82 7.45 7.63 7.45C8.31 7.45 8.96 7.55 9.58 7.73C10.53 6.51 12 5.73 13.66 5.73C16.52 5.73 18.83 8.04 18.83 10.9C18.83 11.55 18.71 12.17 18.49 12.75ZM2.46 14.34C2.46 17.2 4.77 19.52 7.63 19.52C9.19 19.52 13.22 19.52 14.52 19.52C16.43 19.52 17.97 17.97 17.97 16.07C17.97 14.16 16.43 12.62 14.52 12.62C13.84 12.62 13.2 12.83 12.66 13.18C12.13 10.89 10.08 9.17 7.63 9.17C4.77 9.17 2.46 11.49 2.46 14.34ZM13.66 7.45C12.71 7.45 11.85 7.84 11.22 8.46C12.23 9.08 13.07 9.95 13.65 10.99C13.93 10.94 14.22 10.9 14.52 10.9C15.44 10.9 16.3 11.14 17.05 11.56L17.05 11.56C17.09 11.34 17.11 11.12 17.11 10.9C17.11 8.99 15.57 7.45 13.66 7.45ZM13.66 4C13.19 4 12.8 3.62 12.8 3.14L12.8 1.42C12.8 0.94 13.19 0.55 13.66 0.55C14.14 0.55 14.52 0.94 14.52 1.42L14.52 3.14C14.52 3.62 14.14 4 13.66 4ZM7.57 6.02L6.35 4.8C6.01 4.47 6.01 3.92 6.35 3.58C6.69 3.25 7.23 3.25 7.57 3.58L8.79 4.8C9.12 5.14 9.12 5.68 8.79 6.02C8.45 6.36 7.9 6.36 7.57 6.02Z" />
</svg>