<svg xmlns="http://www.w3.org/2000/svg" viewBox="0 0 86 89" width="86" height="89">
	<style>
		tspan { white-space:pre }
		.shp0 { fill: #ffffff } 
	</style>
	<path id="shadow" class="shadow" d="M82.03 40.87L75.75 40.87C74.02 40.87 72.61 39.47 72.61 37.73C72.61 36 74.02 34.59 75.75 34.59L82.03 34.59C83.77 34.59 85.17 36 85.17 37.73C85.17 39.47 83.77 40.87 82.03 40.87ZM69.69 19.97C68.47 21.19 66.48 21.19 65.25 19.97C64.03 18.74 64.03 16.75 65.25 15.53L69.69 11.08C70.92 9.86 72.91 9.86 74.14 11.08C75.36 12.31 75.36 14.3 74.14 15.53L69.69 19.97ZM65.07 44.48L65.07 44.48C67.81 47.75 69.47 51.97 69.47 56.58C69.47 64.78 64.22 71.73 56.91 74.32L56.91 67.44C60.66 65.27 63.19 61.22 63.19 56.58C63.19 49.64 57.57 44.01 50.63 44.01C48.11 44.01 45.79 44.77 43.82 46.04C41.89 37.69 34.44 31.45 25.5 31.45C15.1 31.45 6.66 39.89 6.66 50.29C6.66 55.87 9.09 60.86 12.94 64.31L12.94 72.03C5.44 67.68 0.38 59.59 0.38 50.29C0.38 36.42 11.63 25.17 25.5 25.17C27.97 25.17 30.35 25.53 32.61 26.2C36.06 21.76 41.43 18.89 47.49 18.89C57.89 18.89 66.33 27.33 66.33 37.73C66.33 40.11 65.87 42.38 65.07 44.48ZM47.49 25.17C44.01 25.17 40.87 26.58 38.59 28.86C42.27 31.11 45.33 34.28 47.43 38.05C48.48 37.88 49.53 37.73 50.63 37.73C53.97 37.73 57.1 38.61 59.81 40.13L59.81 40.13C59.97 39.35 60.05 38.55 60.05 37.73C60.05 30.79 54.43 25.17 47.49 25.17ZM47.49 12.61C45.75 12.61 44.35 11.2 44.35 9.47L44.35 3.19C44.35 1.45 45.75 0.05 47.49 0.05C49.22 0.05 50.63 1.45 50.63 3.19L50.63 9.47C50.63 11.2 49.22 12.61 47.49 12.61ZM25.28 19.97L20.84 15.53C19.61 14.3 19.61 12.31 20.84 11.08C22.07 9.86 24.05 9.86 25.28 11.08L29.72 15.53C30.95 16.75 30.95 18.74 29.72 19.97C28.5 21.19 26.51 21.19 25.28 19.97ZM22.36 62.86C24.1 62.86 25.5 64.26 25.5 66C25.5 67.73 24.1 69.14 22.36 69.14C20.63 69.14 19.22 67.73 19.22 66C19.22 64.26 20.63 62.86 22.36 62.86ZM22.36 75.42C24.1 75.42 25.5 76.82 25.5 78.56C25.5 80.29 24.1 81.7 22.36 81.7C20.63 81.7 19.22 80.29 19.22 78.56C19.22 76.82 20.63 75.42 22.36 75.42ZM34.93 69.14C36.66 69.14 38.07 70.54 38.07 72.28C38.07 74.01 36.66 75.42 34.93 75.42C33.19 75.42 31.78 74.01 31.78 72.28C31.78 70.54 33.19 69.14 34.93 69.14ZM34.93 81.7C36.66 81.7 38.07 83.11 38.07 84.84C38.07 86.57 36.66 87.98 34.93 87.98C33.19 87.98 31.78 86.57 31.78 84.84C31.78 83.11 33.19 81.7 34.93 81.7ZM47.49 62.86C49.22 62.86 50.63 64.26 50.63 66C50.63 67.73 49.22 69.14 47.49 69.14C45.75 69.14 44.35 67.73 44.35 66C44.35 64.26 45.75 62.86 47.49 62.86ZM47.49 75.42C49.22 75.42 50.63 76.82 50.63 78.56C50.63 80.29 49.22 81.7 47.49 81.7C45.75 81.7 44.35 80.29 44.35 78.56C44.35 76.82 45.75 75.42 47.49 75.42Z" fill="rgb(227,182,61)" fill-opacity="0.75" transform="translate(0 1)" />

	<path id="CSS" class="shp0" d="M82.03 40.87L75.75 40.87C74.02 40.87 72.61 39.47 72.61 37.73C72.61 36 74.02 34.59 75.75 34.59L82.03 34.59C83.77 34.59 85.17 36 85.17 37.73C85.17 39.47 83.77 40.87 82.03 40.87ZM69.69 19.97C68.47 21.19 66.48 21.19 65.25 19.97C64.03 18.74 64.03 16.75 65.25 15.53L69.69 11.08C70.92 9.86 72.91 9.86 74.14 11.08C75.36 12.31 75.36 14.3 74.14 15.53L69.69 19.97ZM65.07 44.48L65.07 44.48C67.81 47.75 69.47 51.97 69.47 56.58C69.47 64.78 64.22 71.73 56.91 74.32L56.91 67.44C60.66 65.27 63.19 61.22 63.19 56.58C63.19 49.64 57.57 44.01 50.63 44.01C48.11 44.01 45.79 44.77 43.82 46.04C41.89 37.69 34.44 31.45 25.5 31.45C15.1 31.45 6.66 39.89 6.66 50.29C6.66 55.87 9.09 60.86 12.94 64.31L12.94 72.03C5.44 67.68 0.38 59.59 0.38 50.29C0.38 36.42 11.63 25.17 25.5 25.17C27.97 25.17 30.35 25.53 32.61 26.2C36.06 21.76 41.43 18.89 47.49 18.89C57.89 18.89 66.33 27.33 66.33 37.73C66.33 40.11 65.87 42.38 65.07 44.48ZM47.49 25.17C44.01 25.17 40.87 26.58 38.59 28.86C42.27 31.11 45.33 34.28 47.43 38.05C48.48 37.88 49.53 37.73 50.63 37.73C53.97 37.73 57.1 38.61 59.81 40.13L59.81 40.13C59.97 39.35 60.05 38.55 60.05 37.73C60.05 30.79 54.43 25.17 47.49 25.17ZM47.49 12.61C45.75 12.61 44.35 11.2 44.35 9.47L44.35 3.19C44.35 1.45 45.75 0.05 47.49 0.05C49.22 0.05 50.63 1.45 50.63 3.19L50.63 9.47C50.63 11.2 49.22 12.61 47.49 12.61ZM25.28 19.97L20.84 15.53C19.61 14.3 19.61 12.31 20.84 11.08C22.07 9.86 24.05 9.86 25.28 11.08L29.72 15.53C30.95 16.75 30.95 18.74 29.72 19.97C28.5 21.19 26.51 21.19 25.28 19.97ZM22.36 62.86C24.1 62.86 25.5 64.26 25.5 66C25.5 67.73 24.1 69.14 22.36 69.14C20.63 69.14 19.22 67.73 19.22 66C19.22 64.26 20.63 62.86 22.36 62.86ZM22.36 75.42C24.1 75.42 25.5 76.82 25.5 78.56C25.5 80.29 24.1 81.7 22.36 81.7C20.63 81.7 19.22 80.29 19.22 78.56C19.22 76.82 20.63 75.42 22.36 75.42ZM34.93 69.14C36.66 69.14 38.07 70.54 38.07 72.28C38.07 74.01 36.66 75.42 34.93 75.42C33.19 75.42 31.78 74.01 31.78 72.28C31.78 70.54 33.19 69.14 34.93 69.14ZM34.93 81.7C36.66 81.7 38.07 83.11 38.07 84.84C38.07 86.57 36.66 87.98 34.93 87.98C33.19 87.98 31.78 86.57 31.78 84.84C31.78 83.11 33.19 81.7 34.93 81.7ZM47.49 62.86C49.22 62.86 50.63 64.26 50.63 66C50.63 67.73 49.22 69.14 47.49 69.14C45.75 69.14 44.35 67.73 44.35 66C44.35 64.26 45.75 62.86 47.49 62.86ZM47.49 75.42C49.22 75.42 50.63 76.82 50.63 78.56C50.63 80.29 49.22 81.7 47.49 81.7C45.75 81.7 44.35 80.29 44.35 78.56C44.35 76.82 45.75 75.42 47.49 75.42Z" />

</svg>