<svg xmlns="http://www.w3.org/2000/svg" viewBox="0 0 81 75" width="81" height="75">
	<style>
		tspan { white-space:pre }
		.shp0 { fill: #ffffff } 
	</style>
	<path id="shadow" class="shadow" d="M77.25 59.01L3.72 59.01C1.69 59.01 0.04 57.36 0.04 55.33C0.04 53.3 1.69 51.65 3.72 51.65L77.25 51.65C79.28 51.65 80.93 53.3 80.93 55.33C80.93 57.36 79.28 59.01 77.25 59.01ZM77.25 44.3L3.72 44.3C1.69 44.3 0.04 42.65 0.04 40.62C0.04 38.59 1.69 36.95 3.72 36.95L77.25 36.95C79.28 36.95 80.93 38.59 80.93 40.62C80.93 42.65 79.28 44.3 77.25 44.3ZM58.87 22.24C55.93 22.24 53.2 23.13 50.9 24.61C48.64 14.84 39.92 7.53 29.46 7.53C17.27 7.53 7.4 17.41 7.4 29.59L0.04 29.59C0.04 13.35 13.21 0.18 29.46 0.18C40.49 0.18 50.1 6.27 55.13 15.26C56.35 15.05 57.59 14.89 58.87 14.89C68.47 14.89 76.62 21.03 79.65 29.59L71.59 29.59C69.05 25.2 64.31 22.24 58.87 22.24ZM3.72 66.36L77.25 66.36C79.28 66.36 80.93 68.01 80.93 70.04C80.93 72.07 79.28 73.71 77.25 73.71L3.72 73.71C1.69 73.71 0.04 72.07 0.04 70.04C0.04 68.01 1.69 66.36 3.72 66.36Z" fill="rgb(77,209,132)" fill-opacity="0.75" transform="translate(0 1)" />

	<path id="Fog" class="shp0" d="M77.25 59.01L3.72 59.01C1.69 59.01 0.04 57.36 0.04 55.33C0.04 53.3 1.69 51.65 3.72 51.65L77.25 51.65C79.28 51.65 80.93 53.3 80.93 55.33C80.93 57.36 79.28 59.01 77.25 59.01ZM77.25 44.3L3.72 44.3C1.69 44.3 0.04 42.65 0.04 40.62C0.04 38.59 1.69 36.95 3.72 36.95L77.25 36.95C79.28 36.95 80.93 38.59 80.93 40.62C80.93 42.65 79.28 44.3 77.25 44.3ZM58.87 22.24C55.93 22.24 53.2 23.13 50.9 24.61C48.64 14.84 39.92 7.53 29.46 7.53C17.27 7.53 7.4 17.41 7.4 29.59L0.04 29.59C0.04 13.35 13.21 0.18 29.46 0.18C40.49 0.18 50.1 6.27 55.13 15.26C56.35 15.05 57.59 14.89 58.87 14.89C68.47 14.89 76.62 21.03 79.65 29.59L71.59 29.59C69.05 25.2 64.31 22.24 58.87 22.24ZM3.72 66.36L77.25 66.36C79.28 66.36 80.93 68.01 80.93 70.04C80.93 72.07 79.28 73.71 77.25 73.71L3.72 73.71C1.69 73.71 0.04 72.07 0.04 70.04C0.04 68.01 1.69 66.36 3.72 66.36Z" />
</svg>