<svg xmlns="http://www.w3.org/2000/svg" viewBox="0 0 90 77" width="90" height="77">
	<style>
		tspan { white-space:pre }
		.shp0 { fill: #ffffff } 
	</style>
	<path id="shadow" class="shadow" d="M65.39 65.44C64.85 65.44 64.14 65.44 63.35 65.44C63.35 62.64 62.7 59.84 61.42 57.27C63.01 57.27 64.39 57.27 65.39 57.27C74.42 57.27 81.74 49.95 81.74 40.93C81.74 31.9 74.42 24.58 65.39 24.58C62.12 24.58 59.09 25.57 56.54 27.22C54.02 16.36 44.33 8.24 32.7 8.24C19.16 8.24 8.19 19.21 8.19 32.75C8.19 44.92 17.05 54.98 28.67 56.91C27.37 59.4 26.69 62.12 26.6 64.85C11.47 61.99 0.01 48.72 0.01 32.75C0.01 14.7 14.65 0.07 32.7 0.07C44.97 0.07 55.65 6.83 61.24 16.83C62.59 16.6 63.97 16.41 65.39 16.41C78.93 16.41 89.91 27.39 89.91 40.93C89.91 54.47 78.93 65.44 65.39 65.44ZM44.96 51L52.19 58.22C56.17 62.21 56.17 68.68 52.19 72.67C48.2 76.66 41.73 76.66 37.74 72.67C33.75 68.68 33.75 62.21 37.74 58.22L44.96 51Z" fill="rgb(6,179,219)" fill-opacity="0.75" transform="translate(0 1)" />
	
	<path id="CR Alt" class="shp0" d="M65.39 65.44C64.85 65.44 64.14 65.44 63.35 65.44C63.35 62.64 62.7 59.84 61.42 57.27C63.01 57.27 64.39 57.27 65.39 57.27C74.42 57.27 81.74 49.95 81.74 40.93C81.74 31.9 74.42 24.58 65.39 24.58C62.12 24.58 59.09 25.57 56.54 27.22C54.02 16.36 44.33 8.24 32.7 8.24C19.16 8.24 8.19 19.21 8.19 32.75C8.19 44.92 17.05 54.98 28.67 56.91C27.37 59.4 26.69 62.12 26.6 64.85C11.47 61.99 0.01 48.72 0.01 32.75C0.01 14.7 14.65 0.07 32.7 0.07C44.97 0.07 55.65 6.83 61.24 16.83C62.59 16.6 63.97 16.41 65.39 16.41C78.93 16.41 89.91 27.39 89.91 40.93C89.91 54.47 78.93 65.44 65.39 65.44ZM44.96 51L52.19 58.22C56.17 62.21 56.17 68.68 52.19 72.67C48.2 76.66 41.73 76.66 37.74 72.67C33.75 68.68 33.75 62.21 37.74 58.22L44.96 51Z" />
</svg>