<svg xmlns="http://www.w3.org/2000/svg" viewBox="0 0 87 78" width="87" height="78">
	<style>
		tspan { white-space:pre }
		.shp0 { fill: #ffffff } 
	</style>
	<path id="shadow" class="shadow" d="M83.11 41.52L76.75 41.52C74.99 41.52 73.56 40.1 73.56 38.34C73.56 36.58 74.99 35.16 76.75 35.16L83.11 35.16C84.87 35.16 86.3 36.58 86.3 38.34C86.3 40.1 84.87 41.52 83.11 41.52ZM70.6 20.33C69.36 21.57 67.34 21.57 66.1 20.33C64.86 19.09 64.86 17.07 66.1 15.83L70.6 11.32C71.85 10.08 73.86 10.08 75.11 11.32C76.35 12.57 76.35 14.58 75.11 15.83L70.6 20.33ZM65.91 45.18L65.91 45.18C68.7 48.5 70.38 52.77 70.38 57.44C70.38 67.99 61.82 76.55 51.27 76.55C46.86 76.55 30.89 76.55 25.8 76.55C11.74 76.55 0.33 65.14 0.33 51.08C0.33 37.01 11.74 25.6 25.8 25.6C28.31 25.6 30.72 25.97 33.01 26.65C36.5 22.15 41.95 19.24 48.09 19.24C58.64 19.24 67.19 27.79 67.19 38.34C67.19 40.75 66.73 43.05 65.91 45.18ZM6.7 51.08C6.7 61.63 15.25 70.18 25.8 70.18C31.56 70.18 46.47 70.18 51.27 70.18C58.31 70.18 64.01 64.48 64.01 57.44C64.01 50.41 58.31 44.71 51.27 44.71C48.73 44.71 46.37 45.47 44.38 46.76C42.41 38.3 34.87 31.97 25.8 31.97C15.25 31.97 6.7 40.53 6.7 51.08ZM48.09 25.6C44.57 25.6 41.38 27.04 39.08 29.35C42.8 31.63 45.9 34.84 48.04 38.67C49.09 38.49 50.17 38.34 51.27 38.34C54.66 38.34 57.83 39.23 60.59 40.77L60.59 40.77C60.74 39.98 60.83 39.17 60.83 38.34C60.83 31.31 55.12 25.6 48.09 25.6ZM48.09 12.87C46.33 12.87 44.91 11.44 44.91 9.69L44.91 3.32C44.91 1.56 46.33 0.13 48.09 0.13C49.85 0.13 51.27 1.56 51.27 3.32L51.27 9.69C51.27 11.44 49.85 12.87 48.09 12.87ZM25.58 20.33L21.07 15.83C19.83 14.58 19.83 12.57 21.07 11.32C22.32 10.08 24.33 10.08 25.58 11.32L30.08 15.83C31.32 17.07 31.32 19.09 30.08 20.33C28.84 21.57 26.82 21.57 25.58 20.33Z" fill="rgb(97,57,246)" fill-opacity="0.75" transform="translate(0 1)" />

	<path id="CS" class="shp0" d="M83.11 41.52L76.75 41.52C74.99 41.52 73.56 40.1 73.56 38.34C73.56 36.58 74.99 35.16 76.75 35.16L83.11 35.16C84.87 35.16 86.3 36.58 86.3 38.34C86.3 40.1 84.87 41.52 83.11 41.52ZM70.6 20.33C69.36 21.57 67.34 21.57 66.1 20.33C64.86 19.09 64.86 17.07 66.1 15.83L70.6 11.32C71.85 10.08 73.86 10.08 75.11 11.32C76.35 12.57 76.35 14.58 75.11 15.83L70.6 20.33ZM65.91 45.18L65.91 45.18C68.7 48.5 70.38 52.77 70.38 57.44C70.38 67.99 61.82 76.55 51.27 76.55C46.86 76.55 30.89 76.55 25.8 76.55C11.74 76.55 0.33 65.14 0.33 51.08C0.33 37.01 11.74 25.6 25.8 25.6C28.31 25.6 30.72 25.97 33.01 26.65C36.5 22.15 41.95 19.24 48.09 19.24C58.64 19.24 67.19 27.79 67.19 38.34C67.19 40.75 66.73 43.05 65.91 45.18ZM6.7 51.08C6.7 61.63 15.25 70.18 25.8 70.18C31.56 70.18 46.47 70.18 51.27 70.18C58.31 70.18 64.01 64.48 64.01 57.44C64.01 50.41 58.31 44.71 51.27 44.71C48.73 44.71 46.37 45.47 44.38 46.76C42.41 38.3 34.87 31.97 25.8 31.97C15.25 31.97 6.7 40.53 6.7 51.08ZM48.09 25.6C44.57 25.6 41.38 27.04 39.08 29.35C42.8 31.63 45.9 34.84 48.04 38.67C49.09 38.49 50.17 38.34 51.27 38.34C54.66 38.34 57.83 39.23 60.59 40.77L60.59 40.77C60.74 39.98 60.83 39.17 60.83 38.34C60.83 31.31 55.12 25.6 48.09 25.6ZM48.09 12.87C46.33 12.87 44.91 11.44 44.91 9.69L44.91 3.32C44.91 1.56 46.33 0.13 48.09 0.13C49.85 0.13 51.27 1.56 51.27 3.32L51.27 9.69C51.27 11.44 49.85 12.87 48.09 12.87ZM25.58 20.33L21.07 15.83C19.83 14.58 19.83 12.57 21.07 11.32C22.32 10.08 24.33 10.08 25.58 11.32L30.08 15.83C31.32 17.07 31.32 19.09 30.08 20.33C28.84 21.57 26.82 21.57 25.58 20.33Z" />
</svg>