<svg xmlns="http://www.w3.org/2000/svg" viewBox="0 0 63 66" width="63" height="66">
	<style>
		tspan { white-space:pre }
		.shp0 { fill: #ffffff } 
	</style>
	<path id="shadow" class="shadow" d="M56.71 50.15L56.71 50.21L55.85 50.21L52.39 50.21C51.12 50.21 50.08 49.18 50.08 47.91C50.08 46.63 51.12 45.6 52.39 45.6L55.85 45.6C57.12 45.6 58.15 44.57 58.15 43.3C58.15 42.02 57.12 40.99 55.85 40.99C54.57 40.99 53.54 39.96 53.54 38.68C53.54 37.41 54.57 36.38 55.85 36.38C56.01 36.38 56.16 36.39 56.31 36.43C59.91 36.67 62.77 39.63 62.77 43.3C62.77 46.82 60.12 49.73 56.71 50.15ZM50.42 27.15L50.43 27.15C50.67 27.85 50.87 28.56 51 29.3C49.4 28.16 47.49 27.41 45.41 27.21C45.4 27.19 45.39 27.17 45.38 27.15L45.38 27.15C43.78 24.4 40.81 22.54 37.4 22.54C35.56 22.54 33.85 23.1 32.4 24.03C30.98 17.9 25.52 13.32 18.95 13.32C11.31 13.32 5.12 19.51 5.12 27.15L5.12 27.15C5.12 34.8 11.31 40.99 18.95 40.99C21.95 40.99 28.35 40.99 33.02 40.99L44.32 40.99C45.59 40.99 46.62 39.96 46.62 38.68C46.62 37.41 45.59 36.38 44.32 36.38C43.04 36.38 42.01 35.35 42.01 34.07C42.01 32.8 43.04 31.77 44.32 31.77C44.48 31.77 44.63 31.78 44.78 31.81C48.38 32.06 51.24 35.02 51.24 38.68C51.24 42.21 48.59 45.12 45.18 45.54L45.18 45.6L44.32 45.6L35.11 45.6C30.48 45.6 22.01 45.6 18.95 45.6C17.68 45.6 16.65 46.63 16.65 47.91C16.65 49.18 17.68 50.21 18.95 50.21L44.32 50.21L45.18 50.21L45.18 50.27C48.59 50.7 51.24 53.61 51.24 57.13C51.24 60.79 48.38 63.76 44.78 64C44.63 64.03 44.48 64.05 44.32 64.05C43.04 64.05 42.01 63.02 42.01 61.74C42.01 60.47 43.04 59.44 44.32 59.44C45.59 59.44 46.62 58.41 46.62 57.13C46.62 55.86 45.59 54.83 44.32 54.83L18.95 54.83L18.09 54.83L18.09 54.77C14.68 54.34 12.03 51.44 12.03 47.91C12.03 46.69 12.37 45.56 12.93 44.58C5.7 42.08 0.5 35.23 0.5 27.15C0.5 16.97 8.76 8.71 18.95 8.71C21.26 8.71 23.47 9.14 25.5 9.91C27.39 4.52 32.51 0.64 38.55 0.64C39.42 0.64 40.27 0.73 41.1 0.88C40.95 1.54 40.86 2.23 40.86 2.94C40.86 8.04 44.99 12.17 50.08 12.17C50.79 12.17 51.48 12.08 52.15 11.93C52.3 12.75 52.39 13.6 52.39 14.47C52.39 18.09 50.99 21.37 48.72 23.83C49.44 24.84 49.99 25.97 50.42 27.15ZM36.49 5.49C33.15 6.25 30.52 8.84 29.66 12.15L29.66 12.15C31.87 13.73 33.72 15.78 35.06 18.17C35.82 18.04 36.6 17.93 37.4 17.93C40.42 17.93 43.2 18.91 45.48 20.55C46.47 19.42 47.19 18.05 47.54 16.53C41.94 15.49 37.53 11.08 36.49 5.49Z" fill="rgb(220,61,102)" fill-opacity="0.75" transform="translate(0 1)" />

	<path id="CWM" class="shp0" d="M56.71 50.15L56.71 50.21L55.85 50.21L52.39 50.21C51.12 50.21 50.08 49.18 50.08 47.91C50.08 46.63 51.12 45.6 52.39 45.6L55.85 45.6C57.12 45.6 58.15 44.57 58.15 43.3C58.15 42.02 57.12 40.99 55.85 40.99C54.57 40.99 53.54 39.96 53.54 38.68C53.54 37.41 54.57 36.38 55.85 36.38C56.01 36.38 56.16 36.39 56.31 36.43C59.91 36.67 62.77 39.63 62.77 43.3C62.77 46.82 60.12 49.73 56.71 50.15ZM50.42 27.15L50.43 27.15C50.67 27.85 50.87 28.56 51 29.3C49.4 28.16 47.49 27.41 45.41 27.21C45.4 27.19 45.39 27.17 45.38 27.15L45.38 27.15C43.78 24.4 40.81 22.54 37.4 22.54C35.56 22.54 33.85 23.1 32.4 24.03C30.98 17.9 25.52 13.32 18.95 13.32C11.31 13.32 5.12 19.51 5.12 27.15L5.12 27.15C5.12 34.8 11.31 40.99 18.95 40.99C21.95 40.99 28.35 40.99 33.02 40.99L44.32 40.99C45.59 40.99 46.62 39.96 46.62 38.68C46.62 37.41 45.59 36.38 44.32 36.38C43.04 36.38 42.01 35.35 42.01 34.07C42.01 32.8 43.04 31.77 44.32 31.77C44.48 31.77 44.63 31.78 44.78 31.81C48.38 32.06 51.24 35.02 51.24 38.68C51.24 42.21 48.59 45.12 45.18 45.54L45.18 45.6L44.32 45.6L35.11 45.6C30.48 45.6 22.01 45.6 18.95 45.6C17.68 45.6 16.65 46.63 16.65 47.91C16.65 49.18 17.68 50.21 18.95 50.21L44.32 50.21L45.18 50.21L45.18 50.27C48.59 50.7 51.24 53.61 51.24 57.13C51.24 60.79 48.38 63.76 44.78 64C44.63 64.03 44.48 64.05 44.32 64.05C43.04 64.05 42.01 63.02 42.01 61.74C42.01 60.47 43.04 59.44 44.32 59.44C45.59 59.44 46.62 58.41 46.62 57.13C46.62 55.86 45.59 54.83 44.32 54.83L18.95 54.83L18.09 54.83L18.09 54.77C14.68 54.34 12.03 51.44 12.03 47.91C12.03 46.69 12.37 45.56 12.93 44.58C5.7 42.08 0.5 35.23 0.5 27.15C0.5 16.97 8.76 8.71 18.95 8.71C21.26 8.71 23.47 9.14 25.5 9.91C27.39 4.52 32.51 0.64 38.55 0.64C39.42 0.64 40.27 0.73 41.1 0.88C40.95 1.54 40.86 2.23 40.86 2.94C40.86 8.04 44.99 12.17 50.08 12.17C50.79 12.17 51.48 12.08 52.15 11.93C52.3 12.75 52.39 13.6 52.39 14.47C52.39 18.09 50.99 21.37 48.72 23.83C49.44 24.84 49.99 25.97 50.42 27.15ZM36.49 5.49C33.15 6.25 30.52 8.84 29.66 12.15L29.66 12.15C31.87 13.73 33.72 15.78 35.06 18.17C35.82 18.04 36.6 17.93 37.4 17.93C40.42 17.93 43.2 18.91 45.48 20.55C46.47 19.42 47.19 18.05 47.54 16.53C41.94 15.49 37.53 11.08 36.49 5.49Z" />
</svg>