<svg
        xmlns="http://www.w3.org/2000/svg"
        xmlns:xlink="http://www.w3.org/1999/xlink"
        width="146px" height="121px">
    <path fill-rule="evenodd"  fill="rgb(119, 130, 135)"
          d="M143.247,59.165 L133.166,59.165 C131.773,59.165 130.646,58.025 130.646,56.616 C130.646,55.207 131.773,54.067 133.166,54.067 L143.247,54.067 C144.641,54.067 145.768,55.207 145.768,56.616 C145.768,58.025 144.641,59.165 143.247,59.165 ZM123.658,27.392 C123.166,27.890 122.521,28.139 121.876,28.139 C121.231,28.139 120.587,27.890 120.094,27.392 C119.110,26.397 119.110,24.784 120.094,23.788 L127.225,16.579 C128.209,15.583 129.804,15.583 130.788,16.579 C131.773,17.575 131.773,19.188 130.788,20.183 L123.658,27.392 ZM110.698,73.999 C114.436,78.910 116.784,84.981 116.784,91.558 C116.784,107.161 104.089,120.341 89.060,120.341 L28.573,120.341 C13.544,120.341 0.849,107.161 0.849,91.558 C0.849,75.958 13.544,62.777 28.573,62.777 C31.415,62.777 34.229,63.231 36.965,64.129 C39.790,51.622 50.702,42.544 63.575,42.410 C67.550,30.477 78.778,22.197 91.300,22.197 C107.461,22.197 120.606,35.492 120.606,51.837 C120.606,60.377 116.989,68.367 110.698,73.999 ZM41.437,67.910 C41.349,68.722 40.881,69.443 40.180,69.847 C39.476,70.250 38.624,70.290 37.891,69.954 C34.883,68.575 31.748,67.875 28.573,67.875 C16.276,67.875 5.890,78.721 5.890,91.558 C5.890,104.398 16.276,115.244 28.573,115.244 L89.060,115.244 C101.357,115.244 111.743,104.398 111.743,91.558 C111.743,78.721 101.357,67.875 89.060,67.875 C88.967,67.900 88.738,67.926 88.558,67.926 C87.360,67.926 86.323,67.072 86.087,65.879 C83.968,55.220 74.618,47.483 63.857,47.483 C52.348,47.483 42.710,56.266 41.437,67.910 ZM91.300,27.295 C81.348,27.295 72.414,33.626 68.795,42.864 C79.108,44.765 87.664,52.477 90.540,62.820 C96.915,63.188 102.723,66.007 107.296,70.247 C112.547,65.581 115.566,58.938 115.566,51.837 C115.566,38.305 104.679,27.295 91.300,27.295 ZM90.321,15.832 C88.927,15.832 87.800,14.692 87.800,13.283 L87.800,3.087 C87.800,1.678 88.927,0.538 90.321,0.538 C91.714,0.538 92.841,1.678 92.841,3.087 L92.841,13.283 C92.841,14.692 91.714,15.832 90.321,15.832 ZM61.285,28.139 C60.640,28.139 59.996,27.890 59.503,27.392 L52.373,20.183 C51.389,19.188 51.389,17.575 52.373,16.579 C53.357,15.583 54.952,15.583 55.937,16.579 L63.067,23.788 C64.052,24.784 64.052,26.397 63.067,27.392 C62.575,27.890 61.930,28.139 61.285,28.139 ZM126.560,77.807 L133.688,85.019 C134.672,86.015 134.672,87.628 133.688,88.623 C133.196,89.122 132.551,89.370 131.906,89.370 C131.261,89.370 130.616,89.122 130.124,88.623 L122.996,81.412 C122.012,80.417 122.012,78.804 122.996,77.807 C123.980,76.812 125.575,76.812 126.560,77.807 Z"/>
</svg>
