<svg xmlns="http://www.w3.org/2000/svg" xmlns:xlink="http://www.w3.org/1999/xlink" width="21px" height="19px"><path fill-rule="evenodd" fill="rgb(213, 219, 220)" d="M21.000,1.900 L21.000,7.600 C21.000,8.125 20.573,8.550 20.045,8.550 L14.318,8.550 C13.791,8.550 13.364,8.125 13.364,7.600 C13.364,7.075 13.791,6.650 14.318,6.650 L17.537,6.650 C16.243,5.394 15.222,4.402 14.945,4.126 C14.216,3.400 13.366,2.838 12.420,2.456 C11.505,2.087 10.538,1.900 9.545,1.900 C8.553,1.900 7.586,2.087 6.671,2.456 C5.725,2.838 4.875,3.400 4.146,4.126 C3.416,4.852 2.852,5.697 2.468,6.640 C2.097,7.550 1.909,8.512 1.909,9.500 C1.909,10.488 2.097,11.450 2.468,12.360 C2.852,13.303 3.416,14.148 4.146,14.874 C4.875,15.600 5.725,16.162 6.671,16.544 C7.586,16.913 8.553,17.100 9.545,17.100 C10.538,17.100 11.505,16.913 12.420,16.544 C13.366,16.162 14.216,15.600 14.945,14.874 C15.355,14.466 15.717,14.014 16.022,13.531 C16.317,13.061 16.561,12.557 16.747,12.034 C16.922,11.539 17.468,11.280 17.965,11.454 C18.462,11.629 18.723,12.171 18.547,12.666 C18.315,13.321 18.010,13.952 17.639,14.540 C17.258,15.145 16.806,15.709 16.295,16.218 C15.384,17.124 14.322,17.826 13.137,18.304 C12.568,18.534 11.972,18.710 11.368,18.826 C10.769,18.942 10.156,19.000 9.545,19.000 C8.935,19.000 8.322,18.942 7.723,18.826 C7.119,18.710 6.523,18.534 5.954,18.304 C4.769,17.826 3.707,17.124 2.796,16.218 C1.885,15.311 1.179,14.253 0.699,13.074 C0.468,12.508 0.292,11.915 0.175,11.314 C0.059,10.718 -0.000,10.108 -0.000,9.500 C-0.000,8.892 0.059,8.282 0.175,7.686 C0.292,7.085 0.468,6.492 0.699,5.926 C1.179,4.747 1.885,3.689 2.796,2.783 C3.707,1.876 4.769,1.174 5.954,0.696 C6.523,0.466 7.119,0.290 7.723,0.174 C8.322,0.058 8.935,0.000 9.545,0.000 C10.156,0.000 10.769,0.058 11.368,0.174 C11.972,0.290 12.568,0.466 13.137,0.696 C14.322,1.174 15.384,1.876 16.295,2.783 C16.580,3.066 17.697,4.151 19.091,5.504 L19.091,1.900 C19.091,1.375 19.518,0.950 20.045,0.950 C20.573,0.950 21.000,1.375 21.000,1.900 Z"/>
</svg>
