<svg xmlns="http://www.w3.org/2000/svg" xmlns:xlink="http://www.w3.org/1999/xlink" width="22px" height="22px">
    <path fill-rule="evenodd" fill="rgb(82, 90, 93)" d="M11.875,1.375 L11.875,3.125 C11.875,3.608 11.483,4.000 11.000,4.000 C10.517,4.000 10.125,3.608 10.125,3.125 L10.125,1.375 C10.125,0.892 10.517,0.500 11.000,0.500 C11.483,0.500 11.875,0.892 11.875,1.375 ZM11.000,18.000 C10.517,18.000 10.125,18.392 10.125,18.875 L10.125,20.625 C10.125,21.108 10.517,21.500 11.000,21.500 C11.483,21.500 11.875,21.108 11.875,20.625 L11.875,18.875 C11.875,18.392 11.483,18.000 11.000,18.000 ZM3.575,3.575 C3.234,3.917 3.234,4.471 3.575,4.813 L4.813,6.050 C5.155,6.392 5.709,6.392 6.050,6.050 C6.392,5.709 6.392,5.154 6.050,4.813 L4.813,3.575 C4.471,3.234 3.917,3.234 3.575,3.575 ZM15.950,15.950 C15.608,16.291 15.608,16.846 15.950,17.187 L17.187,18.425 C17.529,18.766 18.083,18.766 18.425,18.425 C18.766,18.083 18.766,17.529 18.425,17.187 L17.187,15.950 C16.845,15.608 16.291,15.608 15.950,15.950 ZM0.500,11.000 C0.500,11.483 0.892,11.875 1.375,11.875 L3.125,11.875 C3.608,11.875 4.000,11.483 4.000,11.000 C4.000,10.517 3.608,10.125 3.125,10.125 L1.375,10.125 C0.892,10.125 0.500,10.517 0.500,11.000 ZM18.000,11.000 C18.000,11.483 18.392,11.875 18.875,11.875 L20.625,11.875 C21.108,11.875 21.500,11.483 21.500,11.000 C21.500,10.517 21.108,10.125 20.625,10.125 L18.875,10.125 C18.392,10.125 18.000,10.517 18.000,11.000 ZM3.575,18.425 C3.917,18.766 4.471,18.766 4.813,18.425 L6.050,17.187 C6.392,16.846 6.392,16.291 6.050,15.950 C5.709,15.608 5.155,15.608 4.813,15.950 L3.575,17.187 C3.234,17.529 3.234,18.083 3.575,18.425 ZM15.950,6.050 C16.291,6.392 16.845,6.392 17.187,6.050 L18.425,4.813 C18.766,4.471 18.766,3.917 18.425,3.575 C18.083,3.234 17.529,3.234 17.187,3.575 L15.950,4.813 C15.608,5.154 15.608,5.709 15.950,6.050 ZM16.250,11.000 C16.250,13.900 13.900,16.250 11.000,16.250 C8.101,16.250 5.750,13.900 5.750,11.000 C5.750,8.100 8.101,5.750 11.000,5.750 C13.900,5.750 16.250,8.100 16.250,11.000 ZM14.500,11.000 C14.500,9.067 12.933,7.500 11.000,7.500 C9.067,7.500 7.500,9.067 7.500,11.000 C7.500,12.933 9.067,14.500 11.000,14.500 C12.933,14.500 14.500,12.933 14.500,11.000 Z"/>
</svg>
