<svg xmlns="http://www.w3.org/2000/svg" xmlns:xlink="http://www.w3.org/1999/xlink" width="35px" height="24px"><path fill-rule="evenodd"  stroke-width="1px" stroke="rgb(46, 51, 53)" fill="rgb(82, 90, 93)" d="M29.279,14.799 C26.332,14.799 25.761,12.260 23.384,12.260 C20.817,12.260 20.436,14.826 17.489,14.826 C14.541,14.826 14.161,12.260 11.593,12.260 C9.081,12.260 8.646,14.799 5.698,14.799 C2.751,14.799 2.751,11.656 5.698,11.656 C8.211,11.656 8.646,9.166 11.593,9.166 C14.541,9.166 15.003,11.683 17.489,11.683 C20.031,11.683 20.434,9.166 23.384,9.166 C26.332,9.166 26.739,11.629 29.279,11.629 C32.227,11.629 32.227,14.799 29.279,14.799 ZM29.279,9.132 C26.332,9.132 25.761,6.593 23.384,6.593 C20.817,6.593 20.436,9.159 17.489,9.159 C14.541,9.159 14.161,6.593 11.593,6.593 C9.081,6.593 8.646,9.132 5.698,9.132 C2.751,9.132 2.751,5.989 5.698,5.989 C8.211,5.989 8.646,3.499 11.593,3.499 C14.541,3.499 15.003,6.016 17.489,6.016 C20.031,6.016 20.434,3.499 23.384,3.499 C26.332,3.499 26.739,5.962 29.279,5.962 C32.227,5.962 32.227,9.132 29.279,9.132 ZM5.698,17.322 C8.211,17.322 8.646,14.833 11.593,14.833 C14.541,14.833 15.003,17.349 17.489,17.349 C20.031,17.349 20.434,14.833 23.384,14.833 C26.332,14.833 26.739,17.295 29.279,17.295 C32.227,17.295 32.227,20.466 29.279,20.466 C26.332,20.466 25.761,17.926 23.384,17.926 C20.817,17.926 20.436,20.493 17.489,20.493 C14.541,20.493 14.161,17.926 11.593,17.926 C9.081,17.926 8.646,20.466 5.698,20.466 C2.751,20.466 2.751,17.322 5.698,17.322 Z"/>
</svg>
