<svg width="148" height="123" viewBox="0 0 148 123" fill="none" xmlns="http://www.w3.org/2000/svg">
<path fill-rule="evenodd" clip-rule="evenodd" d="M90.3206 15.8321C91.7137 15.8321 92.8409 14.6921 92.8409 13.2831V3.08704C92.8409 1.67808 91.7137 0.537746 90.3206 0.537746C88.9272 0.537746 87.8003 1.67808 87.8003 3.08704V13.2831C87.8003 14.6921 88.9272 15.8321 90.3206 15.8321ZM143.247 54.0671H133.166C131.773 54.0671 130.646 55.2071 130.646 56.6164C130.646 58.0252 131.773 59.1652 133.166 59.1652H143.247C144.641 59.1652 145.768 58.0252 145.768 56.6164C145.768 55.2071 144.641 54.0671 143.247 54.0671ZM116.784 91.5585C116.784 107.161 104.089 120.341 89.0605 120.341H28.5725C13.5444 120.341 0.848964 107.161 0.848964 91.5585C0.848964 75.9577 13.5444 62.7775 28.5725 62.7775C31.4154 62.7775 34.2286 63.2306 36.9653 64.1289C39.7895 51.6215 50.7022 42.5436 63.5749 42.4097C67.5503 30.4772 78.7779 22.1971 91.3 22.1971C107.461 22.1971 120.606 35.4921 120.606 51.8371C120.606 60.377 116.989 68.3668 110.698 73.9989C114.436 78.9097 116.784 84.9811 116.784 91.5585ZM115.566 51.8371C115.566 38.3053 104.679 27.2952 91.3 27.2952C81.3482 27.2952 72.4141 33.6256 68.7955 42.864C79.1081 44.7655 87.6637 52.4767 90.5399 62.8197C96.9152 63.1884 102.723 66.007 107.296 70.2465C112.547 65.5808 115.566 58.9378 115.566 51.8371ZM28.5725 67.8751C16.2759 67.8751 5.88955 78.7207 5.88955 91.5585C5.88955 104.398 16.2759 115.244 28.5725 115.244H89.0605C101.357 115.244 111.743 104.398 111.743 91.5585C111.743 78.7207 101.357 67.8751 89.0605 67.8751C88.9665 67.9005 88.7379 67.9255 88.5582 67.9255C87.3597 67.9255 86.3233 67.0715 86.0875 65.8787C83.9678 55.2202 74.6179 47.4832 63.8573 47.4832C52.3484 47.4832 42.71 56.2656 41.4374 67.9099C41.3492 68.7217 40.8815 69.4433 40.1797 69.8465C39.4761 70.2497 38.6242 70.2899 37.8907 69.9535C34.8835 68.5746 31.7477 67.8751 28.5725 67.8751ZM61.2849 28.1389C60.6402 28.1389 59.9955 27.8902 59.5031 27.392L52.3731 20.1831C51.3886 19.1876 51.3886 17.5747 52.3731 16.5787C53.3574 15.5829 54.9523 15.5829 55.9368 16.5787L63.0673 23.7879C64.0518 24.7836 64.0518 26.3965 63.0673 27.392C62.5747 27.8902 61.93 28.1389 61.2849 28.1389ZM121.876 28.1389C122.521 28.1389 123.166 27.8902 123.658 27.392L130.789 20.1831C131.773 19.1876 131.773 17.5747 130.789 16.5787C129.804 15.5829 128.209 15.5829 127.225 16.5787L120.094 23.7879C119.11 24.7836 119.11 26.3965 120.094 27.392C120.587 27.8902 121.231 28.1389 121.876 28.1389ZM130.124 88.6232L122.996 81.4122C122.012 80.4165 122.012 78.8036 122.996 77.8073C123.981 76.8116 125.576 76.8116 126.56 77.8073L133.688 85.0192C134.672 86.015 134.672 87.6279 133.688 88.6232C133.196 89.1216 132.551 89.3702 131.906 89.3702C131.261 89.3702 130.616 89.1216 130.124 88.6232Z" fill="#778287"/>
</svg>
