<svg width="24" height="21" viewBox="0 0 24 21" fill="none" xmlns="http://www.w3.org/2000/svg">
<path fill-rule="evenodd" clip-rule="evenodd" d="M21 1.90002V7.6C21 8.12465 20.5726 8.55 20.0455 8.55H14.3182C13.791 8.55 13.3636 8.12465 13.3636 7.6C13.3636 7.07536 13.791 6.65001 14.3182 6.65001H17.5372C16.2427 5.39408 15.2224 4.40162 14.9453 4.12612C14.2159 3.40017 13.3662 2.8384 12.4196 2.45641C11.5047 2.08717 10.5378 1.90002 9.54546 1.90002C8.55316 1.90002 7.58627 2.08717 6.67137 2.45641C5.72476 2.8384 4.87504 3.40017 4.14561 4.12612C3.41644 4.85182 2.85201 5.69747 2.4682 6.63959C2.09716 7.55015 1.9091 8.51245 1.9091 9.5C1.9091 10.4876 2.09716 11.4499 2.4682 12.3604C2.85201 13.3026 3.41644 14.1482 4.14561 14.8739C4.87504 15.5998 5.72476 16.1616 6.67137 16.5436C7.58627 16.9129 8.55316 17.1 9.54546 17.1C10.5378 17.1 11.5047 16.9129 12.4196 16.5436C13.3662 16.1616 14.2159 15.5998 14.9453 14.8739C15.3548 14.4662 15.7169 14.0144 16.0215 13.531C16.3174 13.0611 16.5615 12.5573 16.747 12.0341C16.9222 11.5392 17.4675 11.2796 17.9646 11.4541C18.4617 11.6287 18.7227 12.1712 18.5475 12.6659C18.3151 13.3213 18.0096 13.9517 17.6391 14.5399C17.2582 15.1446 16.8062 15.7089 16.2951 16.2175C15.3841 17.1241 14.3217 17.8262 13.1369 18.3042C12.5676 18.5341 11.9724 18.7096 11.3679 18.8261C10.7692 18.9416 10.156 19 9.54546 19C8.93488 19 8.32175 18.9416 7.72307 18.8261C7.11856 18.7096 6.52336 18.5341 5.95401 18.3042C4.76927 17.8262 3.70677 17.1241 2.79582 16.2175C1.88488 15.3109 1.17945 14.2535 0.699136 13.0743C0.468208 12.5077 0.29176 11.9154 0.174568 11.3137C0.058744 10.7177 -7.98702e-06 10.1077 -7.98702e-06 9.5C-7.98702e-06 8.89232 0.058744 8.28236 0.174568 7.68629C0.29176 7.08466 0.468208 6.4923 0.699136 5.92569C1.17945 4.74652 1.88488 3.68913 2.79582 2.7825C3.70677 1.87589 4.76927 1.17382 5.95401 0.695813C6.52336 0.465968 7.11856 0.290366 7.72307 0.173963C8.32175 0.058463 8.93488 2.00272e-05 9.54546 2.00272e-05C10.156 2.00272e-05 10.7692 0.058463 11.3679 0.173963C11.9724 0.290366 12.5676 0.465968 13.1369 0.695813C14.3217 1.17382 15.3841 1.87589 16.2951 2.7825C16.5801 3.06617 17.6966 4.1514 19.0909 5.50401V1.90002C19.0909 1.37537 19.5183 0.950018 20.0455 0.950018C20.5726 0.950018 21 1.37537 21 1.90002Z" fill="#D5DBDC"/>
</svg>
