<svg width="24" height="24" viewBox="0 0 24 24" fill="none" xmlns="http://www.w3.org/2000/svg">
<path fill-rule="evenodd" clip-rule="evenodd" d="M11.875 1.37504V3.12502C11.875 3.60824 11.4833 4.00004 11 4.00004C10.5168 4.00004 10.125 3.60824 10.125 3.12502V1.37504C10.125 0.891824 10.5168 0.500024 11 0.500024C11.4833 0.500024 11.875 0.891824 11.875 1.37504ZM11 18C10.5168 18 10.125 18.3918 10.125 18.875V20.625C10.125 21.1082 10.5168 21.5 11 21.5C11.4833 21.5 11.875 21.1082 11.875 20.625V18.875C11.875 18.3918 11.4833 18 11 18ZM3.57534 3.57534C3.23374 3.91712 3.23374 4.47106 3.57534 4.81285L4.81282 6.05038C5.15463 6.39195 5.70858 6.39195 6.05036 6.05038C6.39198 5.70855 6.39198 5.15442 6.05036 4.81285L4.81282 3.57534C4.47104 3.23377 3.91714 3.23377 3.57534 3.57534ZM15.9497 15.9497C15.6081 16.2914 15.6081 16.8456 15.9497 17.1872L17.1872 18.4247C17.529 18.7663 18.0829 18.7663 18.4247 18.4247C18.7663 18.0829 18.7663 17.529 18.4247 17.1872L17.1872 15.9497C16.8454 15.608 16.2915 15.608 15.9497 15.9497ZM0.500024 11C0.500024 11.4832 0.8918 11.875 1.37502 11.875H3.12502C3.60824 11.875 4.00002 11.4832 4.00002 11C4.00002 10.5168 3.60824 10.125 3.12502 10.125H1.37502C0.8918 10.125 0.500024 10.5168 0.500024 11ZM18 11C18 11.4832 18.3918 11.875 18.875 11.875H20.625C21.1082 11.875 21.5 11.4832 21.5 11C21.5 10.5168 21.1082 10.125 20.625 10.125H18.875C18.3918 10.125 18 10.5168 18 11ZM3.57534 18.4247C3.91714 18.7663 4.47104 18.7663 4.81282 18.4247L6.05017 17.1872C6.39198 16.8456 6.39198 16.2914 6.05017 15.9497C5.70858 15.608 5.15463 15.608 4.81282 15.9497L3.57534 17.1872C3.23374 17.529 3.23374 18.0829 3.57534 18.4247ZM15.9497 6.05038C16.2915 6.39195 16.8454 6.39195 17.1872 6.05038L18.4247 4.81285C18.7663 4.47106 18.7663 3.91712 18.4247 3.57534C18.0829 3.23377 17.529 3.23377 17.1872 3.57534L15.9497 4.81285C15.6081 5.15442 15.6081 5.70855 15.9497 6.05038ZM16.25 11C16.25 13.8995 13.8995 16.25 11 16.25C8.10054 16.25 5.75 13.8995 5.75 11C5.75 8.10049 8.10054 5.75005 11 5.75005C13.8995 5.75005 16.25 8.10049 16.25 11ZM14.5 11C14.5 9.06697 12.9331 7.50003 11 7.50003C9.06694 7.50003 7.50006 9.06697 7.50006 11C7.50006 12.9331 9.06694 14.5 11 14.5C12.9331 14.5 14.5 12.9331 14.5 11Z" fill="#525A5D"/>
</svg>
