<svg width="32" height="20" viewBox="0 0 32 20" fill="none" xmlns="http://www.w3.org/2000/svg">
<path fill-rule="evenodd" clip-rule="evenodd" d="M26.7794 12.299C23.8316 12.299 23.2609 9.7596 20.884 9.7596C18.317 9.7596 17.9365 12.3261 14.9888 12.3261C12.0411 12.3261 11.6607 9.7596 9.09344 9.7596C6.5808 9.7596 6.14582 12.299 3.19818 12.299C0.25056 12.299 0.25056 9.15574 3.19818 9.15574C5.71101 9.15574 6.14582 6.666 9.09344 6.666C12.0411 6.666 12.5032 9.18274 14.9888 9.18274C17.5308 9.18274 17.9344 6.666 20.884 6.666C23.8316 6.666 24.2394 9.1286 26.7794 9.1286C29.727 9.1286 29.727 12.299 26.7794 12.299ZM26.7794 6.63232C23.8316 6.63232 23.2609 4.09284 20.884 4.09284C18.317 4.09284 17.9365 6.65942 14.9888 6.65942C12.0411 6.65942 11.6607 4.09284 9.09344 4.09284C6.5808 4.09284 6.14582 6.63232 3.19818 6.63232C0.25056 6.63232 0.25056 3.48906 3.19818 3.48906C5.71101 3.48906 6.14582 0.99936 9.09344 0.99936C12.0411 0.99936 12.5032 3.51602 14.9888 3.51602C17.5308 3.51602 17.9344 0.99936 20.884 0.99936C23.8316 0.99936 24.2394 3.4619 26.7794 3.4619C29.727 3.4619 29.727 6.63232 26.7794 6.63232ZM3.19818 14.8224C5.71101 14.8224 6.14582 12.3327 9.09344 12.3327C12.0411 12.3327 12.5032 14.8494 14.9888 14.8494C17.5308 14.8494 17.9344 12.3327 20.884 12.3327C23.8316 12.3327 24.2394 14.7953 26.7794 14.7953C29.727 14.7953 29.727 17.9656 26.7794 17.9656C23.8316 17.9656 23.2609 15.4262 20.884 15.4262C18.317 15.4262 17.9365 17.9927 14.9888 17.9927C12.0411 17.9927 11.6607 15.4262 9.09344 15.4262C6.5808 15.4262 6.14582 17.9656 3.19818 17.9656C0.25056 17.9656 0.25056 14.8224 3.19818 14.8224Z" fill="#525A5D"/>

</svg>
